# xmcd
#
# Track frame offsets: 
#        150
#        26787
#        86495
#        134284
#        159906
#        188186
#        229748
#        266223
#        302523
#
# Disc length: 4569 seconds
#
# Revision: 0
# Processed by: cddbd v1.5.2PL0 Copyright (c) Steve Scherf et al.
# Submitted via: ExactAudioCopy v1.3
#
DISCID=6f11d709
DTITLE=Josh Smith - Live at the Spud
DYEAR=2020
DGENRE=Blues
TTITLE0=How Long (Live)
TTITLE1=Pusher (Live)
TTITLE2=The Way You Do (Live)
TTITLE3=Letting You Go (Live)
TTITLE4=When I Get Mine (Live)
TTITLE5=Penance (Live)
TTITLE6=Triple J Hoedown (Live)
TTITLE7=The Middle (Live)
TTITLE8=Where's My Baby (Live)
EXTD=
EXTT0=
EXTT1=
EXTT2=
EXTT3=
EXTT4=
EXTT5=
EXTT6=
EXTT7=
EXTT8=
PLAYORDER=
